# xmcd
#
# Track frame offsets:
#       150
#       13005
#       27846
#       34026
#       51471
#       60056
#       73741
#       92548
#       99237
#       120063
#       132907
#       144082
#       171265
#       183373
#       198579
#       208654
#       230874
#       239940
#       256338
#       269560
#       283104
#       295805
#       315331
#       331868
#
# Disc length: 4680 seconds
#
# Revision: 1
# Processed by: cddbd v1.5.2PL0 Copyright (c) Steve Scherf et al.
# Submitted via: FreeDbEdit v0.1
#
DISCID=5c124618
DTITLE=Jethro Tull - The Best of Acoustic
DYEAR=2007
DGENRE=New Age
TTITLE0=Fat Man
TTITLE1=Life Is a Long Song
TTITLE2=Cheap Day Return
TTITLE3=Mother
TTITLE4=Wond'ring Aloud
TTITLE5=Thick as a Brick
TTITLE6=Skating Away (On the Thin Ice of the New Day)
TTITLE7=Cold Wind to Valhalla
TTITLE8=One White Duck
TTITLE9=Salamander
TTITLE10=Jack in the Green
TTITLE11=Velvet Green
TTITLE12=Dun Ringill
TTITLE13=Jack Frost and the Hooded Crow
TTITLE14=Under Wraps 2
TTITLE15=Jack-A-Lynn
TTITLE16=Someday the Sun Won't Shine
TTITLE17=Broadford Bazaar
TTITLE18=The Water Carrier
TTITLE19=Rupi's Dance
TTITLE20=A Christmas Song
TTITLE21=Weathercock
TTITLE22=One Brown Mouse
TTITLE23=Pastime With Good Company (Live in Denmark)
EXTD=YEAR: 2007
EXTT0=
EXTT1=
EXTT2=
EXTT3=
EXTT4=
EXTT5=
EXTT6=
EXTT7=
EXTT8=
EXTT9=
EXTT10=
EXTT11=
EXTT12=
EXTT13=
EXTT14=
EXTT15=
EXTT16=
EXTT17=
EXTT18=
EXTT19=
EXTT20=
EXTT21=
EXTT22=
EXTT23=
PLAYORDER=
